<svg xmlns="http://www.w3.org/2000/svg" xmlns:xlink="http://www.w3.org/1999/xlink" width="4000" zoomAndPan="magnify" viewBox="0 0 3000 2999.999989" height="4000" preserveAspectRatio="xMidYMid meet" version="1.0"><defs><clipPath id="6c0a3a6590"><path d="M 983 695.671875 L 2017 695.671875 L 2017 1729 L 983 1729 Z M 983 695.671875 " clip-rule="nonzero"/></clipPath><clipPath id="83265de37b"><path d="M 554 1725 L 2446 1725 L 2446 2617.171875 L 554 2617.171875 Z M 554 1725 " clip-rule="nonzero"/></clipPath></defs><g clip-path="url(#6c0a3a6590)"><path fill="#c69d47" d="M 2016.417969 1212.097656 C 2016.417969 1220.546875 2016.210938 1228.996094 2015.796875 1237.4375 C 2015.382812 1245.878906 2014.761719 1254.304688 2013.929688 1262.714844 C 2013.101562 1271.125 2012.070312 1279.511719 2010.828125 1287.871094 C 2009.589844 1296.230469 2008.144531 1304.558594 2006.496094 1312.847656 C 2004.847656 1321.136719 2002.996094 1329.378906 2000.941406 1337.578125 C 1998.886719 1345.777344 1996.632812 1353.917969 1994.179688 1362.007812 C 1991.726562 1370.09375 1989.078125 1378.117188 1986.230469 1386.074219 C 1983.382812 1394.03125 1980.34375 1401.914062 1977.109375 1409.722656 C 1973.871094 1417.53125 1970.449219 1425.257812 1966.835938 1432.894531 C 1963.222656 1440.535156 1959.421875 1448.082031 1955.4375 1455.539062 C 1951.457031 1462.992188 1947.289062 1470.34375 1942.945312 1477.589844 C 1938.601562 1484.839844 1934.082031 1491.980469 1929.386719 1499.007812 C 1924.691406 1506.035156 1919.824219 1512.941406 1914.789062 1519.730469 C 1909.753906 1526.519531 1904.558594 1533.179688 1899.195312 1539.710938 C 1893.832031 1546.246094 1888.316406 1552.644531 1882.640625 1558.90625 C 1876.964844 1565.167969 1871.136719 1571.289062 1865.160156 1577.261719 C 1859.183594 1583.238281 1853.066406 1589.066406 1846.804688 1594.742188 C 1840.539062 1600.417969 1834.144531 1605.9375 1827.609375 1611.296875 C 1821.078125 1616.660156 1814.414062 1621.859375 1807.628906 1626.890625 C 1800.839844 1631.925781 1793.929688 1636.792969 1786.902344 1641.488281 C 1779.875 1646.183594 1772.738281 1650.703125 1765.488281 1655.046875 C 1758.238281 1659.394531 1750.886719 1663.558594 1743.433594 1667.542969 C 1735.980469 1671.527344 1728.433594 1675.324219 1720.792969 1678.9375 C 1713.152344 1682.550781 1705.429688 1685.976562 1697.621094 1689.210938 C 1689.8125 1692.445312 1681.929688 1695.484375 1673.972656 1698.332031 C 1666.015625 1701.179688 1657.992188 1703.832031 1649.902344 1706.285156 C 1641.816406 1708.738281 1633.671875 1710.992188 1625.476562 1713.042969 C 1617.277344 1715.097656 1609.03125 1716.949219 1600.742188 1718.597656 C 1592.453125 1720.246094 1584.128906 1721.691406 1575.769531 1722.929688 C 1567.410156 1724.171875 1559.023438 1725.207031 1550.613281 1726.035156 C 1542.203125 1726.863281 1533.777344 1727.484375 1525.335938 1727.898438 C 1516.890625 1728.3125 1508.445312 1728.519531 1499.996094 1728.519531 C 1491.542969 1728.519531 1483.097656 1728.3125 1474.65625 1727.898438 C 1466.214844 1727.484375 1457.785156 1726.863281 1449.375 1726.035156 C 1440.964844 1725.207031 1432.578125 1724.171875 1424.21875 1722.929688 C 1415.859375 1721.691406 1407.535156 1720.246094 1399.246094 1718.597656 C 1390.957031 1716.949219 1382.710938 1715.097656 1374.511719 1713.042969 C 1366.316406 1710.992188 1358.171875 1708.738281 1350.085938 1706.285156 C 1341.996094 1703.832031 1333.972656 1701.179688 1326.015625 1698.332031 C 1318.058594 1695.484375 1310.175781 1692.445312 1302.367188 1689.210938 C 1294.558594 1685.976562 1286.835938 1682.550781 1279.195312 1678.9375 C 1271.554688 1675.324219 1264.007812 1671.527344 1256.554688 1667.542969 C 1249.101562 1663.558594 1241.75 1659.394531 1234.5 1655.046875 C 1227.25 1650.703125 1220.113281 1646.183594 1213.085938 1641.488281 C 1206.058594 1636.792969 1199.148438 1631.925781 1192.359375 1626.890625 C 1185.574219 1621.859375 1178.910156 1616.660156 1172.378906 1611.296875 C 1165.84375 1605.9375 1159.449219 1600.417969 1153.183594 1594.742188 C 1146.921875 1589.066406 1140.804688 1583.238281 1134.828125 1577.261719 C 1128.851562 1571.289062 1123.023438 1565.167969 1117.347656 1558.90625 C 1111.671875 1552.644531 1106.15625 1546.246094 1100.792969 1539.710938 C 1095.429688 1533.179688 1090.234375 1526.519531 1085.199219 1519.730469 C 1080.164062 1512.941406 1075.300781 1506.035156 1070.601562 1499.007812 C 1065.90625 1491.980469 1061.386719 1484.839844 1057.042969 1477.589844 C 1052.699219 1470.34375 1048.53125 1462.992188 1044.550781 1455.539062 C 1040.566406 1448.082031 1036.765625 1440.535156 1033.152344 1432.894531 C 1029.539062 1425.257812 1026.113281 1417.53125 1022.878906 1409.722656 C 1019.644531 1401.914062 1016.605469 1394.03125 1013.757812 1386.074219 C 1010.910156 1378.117188 1008.261719 1370.09375 1005.808594 1362.007812 C 1003.355469 1353.917969 1001.101562 1345.777344 999.046875 1337.578125 C 996.992188 1329.378906 995.140625 1321.136719 993.492188 1312.847656 C 991.84375 1304.558594 990.398438 1296.230469 989.160156 1287.871094 C 987.917969 1279.511719 986.886719 1271.125 986.058594 1262.714844 C 985.230469 1254.304688 984.605469 1245.878906 984.191406 1237.4375 C 983.777344 1228.996094 983.570312 1220.546875 983.570312 1212.097656 C 983.570312 1203.644531 983.777344 1195.199219 984.191406 1186.757812 C 984.605469 1178.316406 985.230469 1169.890625 986.058594 1161.476562 C 986.886719 1153.066406 987.917969 1144.683594 989.160156 1136.320312 C 990.398438 1127.960938 991.84375 1119.636719 993.492188 1111.347656 C 995.140625 1103.058594 996.992188 1094.8125 999.046875 1086.617188 C 1001.101562 1078.417969 1003.355469 1070.273438 1005.808594 1062.1875 C 1008.261719 1054.097656 1010.910156 1046.078125 1013.757812 1038.117188 C 1016.605469 1030.160156 1019.644531 1022.277344 1022.878906 1014.46875 C 1026.113281 1006.660156 1029.539062 998.9375 1033.152344 991.296875 C 1036.765625 983.65625 1040.566406 976.109375 1044.550781 968.65625 C 1048.53125 961.203125 1052.699219 953.851562 1057.042969 946.601562 C 1061.386719 939.351562 1065.90625 932.214844 1070.601562 925.1875 C 1075.300781 918.160156 1080.164062 911.25 1085.199219 904.464844 C 1090.234375 897.675781 1095.429688 891.015625 1100.792969 884.480469 C 1106.15625 877.949219 1111.671875 871.550781 1117.347656 865.289062 C 1123.023438 859.027344 1128.851562 852.90625 1134.828125 846.929688 C 1140.804688 840.953125 1146.921875 835.128906 1153.183594 829.453125 C 1159.449219 823.777344 1165.84375 818.257812 1172.378906 812.894531 C 1178.910156 807.535156 1185.574219 802.335938 1192.359375 797.300781 C 1199.148438 792.265625 1206.058594 787.402344 1213.085938 782.707031 C 1220.113281 778.011719 1227.25 773.492188 1234.5 769.144531 C 1241.75 764.800781 1249.101562 760.636719 1256.554688 756.652344 C 1264.007812 752.667969 1271.554688 748.867188 1279.195312 745.253906 C 1286.835938 741.640625 1294.558594 738.21875 1302.367188 734.984375 C 1310.175781 731.75 1318.058594 728.707031 1326.015625 725.859375 C 1333.972656 723.011719 1341.996094 720.363281 1350.085938 717.910156 C 1358.171875 715.457031 1366.316406 713.203125 1374.511719 711.148438 C 1382.710938 709.097656 1390.957031 707.246094 1399.246094 705.597656 C 1407.535156 703.945312 1415.859375 702.503906 1424.21875 701.261719 C 1432.578125 700.023438 1440.964844 698.988281 1449.375 698.160156 C 1457.785156 697.332031 1466.214844 696.710938 1474.65625 696.296875 C 1483.097656 695.878906 1491.542969 695.671875 1499.996094 695.671875 C 1508.445312 695.671875 1516.890625 695.878906 1525.335938 696.296875 C 1533.777344 696.710938 1542.203125 697.332031 1550.613281 698.160156 C 1559.023438 698.988281 1567.410156 700.023438 1575.769531 701.261719 C 1584.128906 702.503906 1592.453125 703.945312 1600.742188 705.597656 C 1609.03125 707.246094 1617.277344 709.097656 1625.476562 711.148438 C 1633.671875 713.203125 1641.816406 715.457031 1649.902344 717.910156 C 1657.992188 720.363281 1666.015625 723.011719 1673.972656 725.859375 C 1681.929688 728.707031 1689.8125 731.75 1697.621094 734.984375 C 1705.429688 738.21875 1713.152344 741.640625 1720.792969 745.253906 C 1728.433594 748.867188 1735.980469 752.667969 1743.433594 756.652344 C 1750.886719 760.636719 1758.238281 764.800781 1765.488281 769.144531 C 1772.738281 773.492188 1779.875 778.011719 1786.902344 782.707031 C 1793.929688 787.402344 1800.839844 792.265625 1807.628906 797.300781 C 1814.414062 802.335938 1821.078125 807.535156 1827.609375 812.894531 C 1834.144531 818.257812 1840.539062 823.777344 1846.804688 829.453125 C 1853.066406 835.128906 1859.183594 840.953125 1865.160156 846.929688 C 1871.136719 852.90625 1876.964844 859.027344 1882.640625 865.289062 C 1888.316406 871.550781 1893.832031 877.949219 1899.195312 884.480469 C 1904.558594 891.015625 1909.753906 897.675781 1914.789062 904.464844 C 1919.824219 911.25 1924.691406 918.160156 1929.386719 925.1875 C 1934.082031 932.214844 1938.601562 939.351562 1942.945312 946.601562 C 1947.289062 953.851562 1951.457031 961.203125 1955.4375 968.65625 C 1959.421875 976.109375 1963.222656 983.65625 1966.835938 991.296875 C 1970.449219 998.9375 1973.871094 1006.660156 1977.109375 1014.46875 C 1980.34375 1022.277344 1983.382812 1030.160156 1986.230469 1038.117188 C 1989.078125 1046.078125 1991.726562 1054.097656 1994.179688 1062.1875 C 1996.632812 1070.273438 1998.886719 1078.417969 2000.941406 1086.617188 C 2002.996094 1094.8125 2004.847656 1103.058594 2006.496094 1111.347656 C 2008.144531 1119.636719 2009.589844 1127.960938 2010.828125 1136.320312 C 2012.070312 1144.683594 2013.101562 1153.066406 2013.929688 1161.476562 C 2014.761719 1169.890625 2015.382812 1178.316406 2015.796875 1186.757812 C 2016.210938 1195.199219 2016.417969 1203.644531 2016.417969 1212.097656 Z M 2016.417969 1212.097656 " fill-opacity="1" fill-rule="nonzero"/></g><g clip-path="url(#83265de37b)"><path fill="#c69d47" d="M 2445.488281 2617.488281 C 2445.488281 2203.835938 2178.28125 1854.414062 1810.875 1725.953125 C 1720.953125 1782.476562 1613.042969 1813.308594 1499.996094 1813.308594 C 1386.945312 1813.308594 1279.035156 1779.90625 1189.113281 1725.953125 C 819.136719 1854.414062 554.5 2203.835938 554.5 2617.488281 Z M 2445.488281 2617.488281 " fill-opacity="1" fill-rule="nonzero"/></g></svg>